<svg width="32" height="32" viewBox="0 0 32 32" fill="none" xmlns="http://www.w3.org/2000/svg">
<g clip-path="url(#clip0_7456_6935)">
<path d="M9.1401 19.1181C9.1401 20.4976 8.02514 21.6126 6.64561 21.6126C5.26608 21.6126 4.15112 20.4976 4.15112 19.1181C4.15112 17.7386 5.26608 16.6236 6.64561 16.6236H9.1401V19.1181ZM10.3873 19.1181C10.3873 17.7386 11.5023 16.6236 12.8818 16.6236C14.2614 16.6236 15.3763 17.7386 15.3763 19.1181V25.3543C15.3763 26.7338 14.2614 27.8488 12.8818 27.8488C11.5023 27.8488 10.3873 26.7338 10.3873 25.3543V19.1181Z" fill="#E01E5A"/>
<path d="M12.8819 9.10238C11.5024 9.10238 10.3874 7.98742 10.3874 6.60789C10.3874 5.22836 11.5024 4.1134 12.8819 4.1134C14.2615 4.1134 15.3764 5.22836 15.3764 6.60789V9.10238H12.8819ZM12.8819 10.3685C14.2615 10.3685 15.3764 11.4835 15.3764 12.863C15.3764 14.2425 14.2615 15.3575 12.8819 15.3575H6.62681C5.24728 15.3575 4.13232 14.2425 4.13232 12.863C4.13232 11.4835 5.24728 10.3685 6.62681 10.3685H12.8819Z" fill="#36C5F0"/>
<path d="M22.8788 12.863C22.8788 11.4835 23.9938 10.3685 25.3733 10.3685C26.7528 10.3685 27.8678 11.4835 27.8678 12.863C27.8678 14.2425 26.7528 15.3575 25.3733 15.3575H22.8788V12.863ZM21.6316 12.863C21.6316 14.2425 20.5166 15.3575 19.1371 15.3575C17.7575 15.3575 16.6426 14.2425 16.6426 12.863V6.60789C16.6426 5.22836 17.7575 4.1134 19.1371 4.1134C20.5166 4.1134 21.6316 5.22836 21.6316 6.60789V12.863Z" fill="#2EB67D"/>
<path d="M19.1371 22.8598C20.5166 22.8598 21.6316 23.9748 21.6316 25.3543C21.6316 26.7338 20.5166 27.8488 19.1371 27.8488C17.7575 27.8488 16.6426 26.7338 16.6426 25.3543V22.8598H19.1371ZM19.1371 21.6126C17.7575 21.6126 16.6426 20.4976 16.6426 19.1181C16.6426 17.7386 17.7575 16.6236 19.1371 16.6236H25.3922C26.7717 16.6236 27.8867 17.7386 27.8867 19.1181C27.8867 20.4976 26.7717 21.6126 25.3922 21.6126H19.1371Z" fill="#ECB22E"/>
</g>
<defs>
<clipPath id="clip0_7456_6935">
<rect width="24" height="24" fill="white" transform="translate(4 4)"/>
</clipPath>
</defs>
</svg>
