<svg width="32" height="32" viewBox="0 0 32 32" fill="none" xmlns="http://www.w3.org/2000/svg">
<g clip-path="url(#clip0_7456_6931)">
<path d="M5.44408 5.0351L18.724 4.05422C20.3553 3.9143 20.7743 4.00862 21.8001 4.7543L26.0392 7.74062C26.7383 8.25422 26.9711 8.39414 26.9711 8.95334V25.3317C26.9711 26.3581 26.5984 26.9653 25.2935 27.058L9.87208 27.9921C8.89288 28.0384 8.42656 27.8985 7.91368 27.2449L4.792 23.1856C4.23208 22.4385 4 21.8793 4 21.2255V6.6671C4 5.82782 4.37272 5.12798 5.44408 5.0351Z" fill="white"/>
<path fill-rule="evenodd" clip-rule="evenodd" d="M18.724 4.05446L5.44408 5.03534C4.37272 5.12798 4 5.82806 4 6.6671V21.2255C4 21.879 4.23208 22.4382 4.792 23.1856L7.91368 27.2447C8.42656 27.8982 8.89288 28.0384 9.87208 27.9918L25.2938 27.0582C26.5977 26.9653 26.9714 26.3581 26.9714 25.3319V8.95358C26.9714 8.42318 26.7618 8.2703 26.145 7.81766L21.8001 4.7543C20.7746 4.00862 20.3553 3.9143 18.724 4.05422V4.05446ZM10.2208 8.6855C8.96152 8.77022 8.67592 8.78942 7.96072 8.2079L6.14248 6.76166C5.95768 6.57446 6.05056 6.34094 6.51616 6.29438L19.2825 5.3615C20.3546 5.2679 20.9128 5.64158 21.3321 5.96798L23.5216 7.55438C23.6152 7.60166 23.848 7.88078 23.5679 7.88078L10.384 8.67446L10.2208 8.6855ZM8.75272 25.192V11.2881C8.75272 10.6809 8.9392 10.4008 9.49744 10.3537L24.64 9.46718C25.1536 9.42086 25.3857 9.74726 25.3857 10.3535V24.1648C25.3857 24.772 25.2921 25.2856 24.4538 25.3319L9.96328 26.1719C9.12496 26.2182 8.75296 25.9391 8.75296 25.192H8.75272ZM23.0567 12.0335C23.1496 12.4535 23.0567 12.8735 22.6367 12.9215L21.9383 13.06V23.3255C21.3318 23.6519 20.7736 23.8384 20.307 23.8384C19.5614 23.8384 19.3751 23.6049 18.8166 22.9055L14.2494 15.7199V22.672L15.6942 22.9991C15.6942 22.9991 15.6942 23.8391 14.5286 23.8391L11.315 24.0256C11.2214 23.8384 11.315 23.3721 11.6406 23.2792L12.4799 23.0464V13.8544L11.3152 13.7601C11.2216 13.3401 11.4544 12.7336 12.1072 12.6865L15.5553 12.4545L20.3073 19.7329V13.2937L19.096 13.1545C19.0024 12.6402 19.3751 12.2665 19.8407 12.2209L23.0567 12.0335Z" fill="black"/>
</g>
<defs>
<clipPath id="clip0_7456_6931">
<rect width="24" height="24" fill="white" transform="translate(4 4)"/>
</clipPath>
</defs>
</svg>
