<svg width="32" height="32" viewBox="0 0 32 32" fill="none" xmlns="http://www.w3.org/2000/svg">
<g clip-path="url(#clip0_7456_6896)">
<path d="M5.81443 22.9981L6.87285 24.7885C7.09278 25.1654 7.40893 25.4615 7.78007 25.6769L11.5601 19.2692H4C4 19.6865 4.10997 20.1038 4.3299 20.4808L5.81443 22.9981Z" fill="#0066DA"/>
<path d="M16 11.7308L12.2199 5.32306C11.8488 5.53844 11.5326 5.8346 11.3127 6.21152L4.3299 18.0577C4.11401 18.4265 4.00029 18.8441 4 19.2692H11.5601L16 11.7308Z" fill="#00AC47"/>
<path d="M24.22 25.6769C24.5911 25.4615 24.9072 25.1654 25.1272 24.7885L25.567 24.0481L27.6701 20.4808C27.8901 20.1038 28 19.6865 28 19.2692H20.4393L22.0481 22.3654L24.22 25.6769Z" fill="#EA4335"/>
<path d="M16 11.7308L19.7801 5.32308C19.409 5.10769 18.9829 5 18.543 5H13.4571C13.0172 5 12.5911 5.12115 12.22 5.32308L16 11.7308Z" fill="#00832D"/>
<path d="M20.4398 19.2692H11.5601L7.78003 25.6769C8.15116 25.8923 8.57728 26 9.01714 26H22.9828C23.4226 26 23.8488 25.8788 24.2199 25.6769L20.4398 19.2692Z" fill="#2684FC"/>
<path d="M24.1787 12.1346L20.6873 6.21152C20.4674 5.8346 20.1512 5.53844 19.7801 5.32306L16 11.7308L20.4399 19.2692H27.9863C27.9863 18.8519 27.8763 18.4346 27.6564 18.0577L24.1787 12.1346Z" fill="#FFBA00"/>
</g>
<defs>
<clipPath id="clip0_7456_6896">
<rect width="24" height="21" fill="white" transform="translate(4 5)"/>
</clipPath>
</defs>
</svg>
