<svg width="32" height="32" viewBox="0 0 32 32" fill="none" xmlns="http://www.w3.org/2000/svg">
<g clip-path="url(#clip0_8837_5853)">
<rect width="32" height="32" fill="#E8E8E3"/>
<path d="M5 10.5C5 7.46243 7.46245 5 10.5 5H21.5C24.5376 5 27 7.46243 27 10.5V21.5C27 24.5376 24.5376 27 21.5 27H10.5C7.46245 27 5 24.5376 5 21.5V10.5Z" fill="#1868DB"/>
<mask id="mask0_8837_5853" style="mask-type:luminance" maskUnits="userSpaceOnUse" x="8" y="9" width="15" height="15">
<path d="M22.6145 9.76208H8.77551V23.7083H22.6145V9.76208Z" fill="white"/>
</mask>
<g mask="url(#mask0_8837_5853)">
<path d="M13.2259 19.2297H11.9863C10.1167 19.2297 8.77553 18.0846 8.77553 16.4078H15.441C15.7865 16.4078 16.01 16.6531 16.01 17.0008V23.7081C14.3436 23.7081 13.2259 22.3584 13.2259 20.4771V19.2297ZM16.518 15.8966H15.2784C13.4088 15.8966 12.0676 14.7719 12.0676 13.095H18.733C19.0785 13.095 19.3224 13.32 19.3224 13.6676V20.3749C17.656 20.3749 16.518 19.0252 16.518 17.1439V15.8966ZM19.8304 12.5838H18.5908C16.7212 12.5838 15.38 11.4387 15.38 9.76184H22.0455C22.3909 9.76184 22.6145 10.0072 22.6145 10.3344V17.0417C20.9481 17.0417 19.8304 15.692 19.8304 13.8108V12.5838Z" fill="white"/>
</g>
</g>
<defs>
<clipPath id="clip0_8837_5853">
<path d="M0 6C0 2.68629 2.68629 0 6 0H26C29.3137 0 32 2.68629 32 6V27C32 29.7614 29.7614 32 27 32H6C2.68629 32 0 29.3137 0 26V6Z" fill="white"/>
</clipPath>
</defs>
</svg>
